<svg width="136" height="70" viewBox="0 0 136 70" fill="none" xmlns="http://www.w3.org/2000/svg">
<path d="M69.1967 45V23.1H72.1367V45H69.1967ZM71.5367 45V42.36H81.5567V45H71.5367ZM90.3521 45.48C88.4521 45.48 86.9921 44.86 85.9721 43.62C84.9521 42.38 84.4421 40.59 84.4421 38.25V28.95H87.3221V38.82C87.3221 40.08 87.6621 41.07 88.3421 41.79C89.0221 42.49 89.9421 42.84 91.1021 42.84C92.3021 42.84 93.2821 42.46 94.0421 41.7C94.8021 40.92 95.1821 39.86 95.1821 38.52V28.95H98.0621V45H95.7821V38.13H96.1421C96.1421 39.71 95.9321 41.05 95.5121 42.15C95.0921 43.23 94.4621 44.06 93.6221 44.64C92.8021 45.2 91.7521 45.48 90.4721 45.48H90.3521ZM114.68 45L108.65 37.53H106.01L113.36 28.98H116.39L109.73 36.69L109.94 35.16L118.01 45H114.68ZM103.64 45V23.1H106.52V45H103.64ZM130.41 45V40.2H129.93V34.65C129.93 33.55 129.64 32.72 129.06 32.16C128.5 31.6 127.67 31.32 126.57 31.32C125.95 31.32 125.31 31.33 124.65 31.35C123.99 31.37 123.36 31.39 122.76 31.41C122.16 31.43 121.64 31.46 121.2 31.5V28.98C121.64 28.94 122.1 28.91 122.58 28.89C123.08 28.85 123.59 28.83 124.11 28.83C124.63 28.81 125.13 28.8 125.61 28.8C127.25 28.8 128.59 29 129.63 29.4C130.67 29.78 131.44 30.41 131.94 31.29C132.44 32.17 132.69 33.36 132.69 34.86V45H130.41ZM125.16 45.42C123.96 45.42 122.92 45.22 122.04 44.82C121.18 44.4 120.51 43.8 120.03 43.02C119.57 42.24 119.34 41.3 119.34 40.2C119.34 39.06 119.59 38.11 120.09 37.35C120.61 36.59 121.36 36.02 122.34 35.64C123.32 35.24 124.5 35.04 125.88 35.04H130.23V37.2H125.76C124.6 37.2 123.71 37.48 123.09 38.04C122.47 38.6 122.16 39.32 122.16 40.2C122.16 41.08 122.47 41.79 123.09 42.33C123.71 42.87 124.6 43.14 125.76 43.14C126.44 43.14 127.09 43.02 127.71 42.78C128.33 42.52 128.84 42.1 129.24 41.52C129.66 40.92 129.89 40.1 129.93 39.06L130.71 40.2C130.61 41.34 130.33 42.3 129.87 43.08C129.43 43.84 128.81 44.42 128.01 44.82C127.23 45.22 126.28 45.42 125.16 45.42Z" fill="black"/>
<path d="M54.151 24.7917H15.9568C14.9884 24.7917 14.0597 24.4076 13.3749 23.7238C12.6901 23.0401 12.3054 22.1128 12.3054 21.1458C12.3054 20.1789 12.6901 19.2516 13.3749 18.5678C14.0597 17.8841 14.9884 17.5 15.9568 17.5H54.151C55.1194 17.5 56.0482 17.8841 56.733 18.5678C57.4178 19.2516 57.8025 20.1789 57.8025 21.1458C57.8025 22.1128 57.4178 23.0401 56.733 23.7238C56.0482 24.4076 55.1194 24.7917 54.151 24.7917Z" fill="#FB9C88"/>
<path d="M54.151 25.5208H15.9568C14.7947 25.5208 13.6802 25.0599 12.8584 24.2394C12.0367 23.419 11.575 22.3062 11.575 21.1458C11.575 19.9855 12.0367 18.8727 12.8584 18.0523C13.6802 17.2318 14.7947 16.7708 15.9568 16.7708H54.151C55.3131 16.7708 56.4276 17.2318 57.2493 18.0523C58.0711 18.8727 58.5327 19.9855 58.5327 21.1458C58.5327 22.3062 58.0711 23.419 57.2493 24.2394C56.4276 25.0599 55.3131 25.5208 54.151 25.5208ZM15.9568 18.2292C15.182 18.2292 14.439 18.5365 13.8912 19.0834C13.3434 19.6304 13.0356 20.3723 13.0356 21.1458C13.0356 21.9194 13.3434 22.6613 13.8912 23.2082C14.439 23.7552 15.182 24.0625 15.9568 24.0625H54.151C54.9257 24.0625 55.6687 23.7552 56.2165 23.2082C56.7644 22.6613 57.0721 21.9194 57.0721 21.1458C57.0721 20.3723 56.7644 19.6304 56.2165 19.0834C55.6687 18.5365 54.9257 18.2292 54.151 18.2292H15.9568Z" fill="#302D3D"/>
<path d="M44.9567 35C39.1947 37.6104 30.9205 37.6104 25.1512 35C9.14324 27.7448 19.6156 5.29376 35.0539 5.29376C50.4923 5.29376 60.9573 27.7448 44.9567 35Z" fill="#FBD8C4"/>
<path d="M35.0539 5.29376C24.326 5.29376 15.7597 16.3188 17.3225 25.4698C18.6005 33.425 26.8601 36.9396 35.0539 36.9396C43.2478 36.9396 51.595 33.3813 52.8073 25.3313C54.2533 16.2531 45.7965 5.29376 35.0539 5.29376ZM49.1996 24.7917C48.2722 30.9094 41.349 33.2938 35.0539 33.2938C28.883 33.2938 21.9087 30.9604 20.9301 24.8938C19.7543 17.9521 26.4438 8.9396 35.0539 8.9396C43.6641 8.9396 50.2805 18.0469 49.1996 24.7917Z" fill="#FBC9B0"/>
<path d="M41.108 10.4781C41.5312 10.7102 42.0294 10.7649 42.493 10.6302C42.9566 10.4955 43.3476 10.1824 43.5801 9.75988C43.8125 9.33733 43.8673 8.8399 43.7324 8.37702C43.5975 7.91414 43.2839 7.52372 42.8607 7.29165C40.148 5.80314 37.0663 5.11814 33.9773 5.31704C30.8883 5.51594 27.9202 6.59049 25.4214 8.41457C25.2248 8.54863 25.0566 8.72004 24.9263 8.91901C24.7961 9.11799 24.7063 9.34063 24.6622 9.57422C24.6182 9.80782 24.6206 10.0478 24.6694 10.2805C24.7182 10.5131 24.8124 10.7339 24.9467 10.9302C25.081 11.1265 25.2526 11.2945 25.4519 11.4245C25.6512 11.5546 25.8742 11.6442 26.1082 11.6882C26.3421 11.7322 26.5825 11.7298 26.8155 11.681C27.0485 11.6323 27.2696 11.5382 27.4662 11.4042C29.4181 9.97407 31.737 9.12767 34.1525 8.9637C36.5679 8.79973 38.9803 9.32496 41.108 10.4781Z" fill="#FBFBFF"/>
<path d="M49.9007 24.6677C44.7718 25.1647 39.7577 26.4896 35.0539 28.5906C31.0064 26.7484 26.7106 25.5078 22.3031 24.9083C21.6781 24.8052 21.0366 24.8847 20.4558 25.1371C19.875 25.3895 19.3796 25.8042 19.0293 26.3311C18.679 26.8581 18.4887 27.4749 18.4813 28.1073C18.4739 28.7398 18.6497 29.3609 18.9876 29.8958C22.23 35 28.956 36.9542 35.0539 36.9542C41.9698 36.9542 49.5429 34.424 52.1062 27.9636C52.2525 27.6012 52.308 27.2087 52.2678 26.8201C52.2276 26.4316 52.093 26.0587 51.8756 25.7338C51.6582 25.409 51.3647 25.1421 51.0205 24.9563C50.6764 24.7705 50.292 24.6714 49.9007 24.6677Z" fill="#FB9C88"/>
<path d="M35.0539 37.6688C23.9097 37.6688 16.4169 31.9083 16.4169 23.3333C16.5492 18.5338 18.4955 13.9621 21.8649 10.5365C29.4161 2.56667 40.7064 2.58855 48.243 10.5365C51.6124 13.9621 53.5587 18.5338 53.6909 23.3333C53.6909 31.9083 46.1982 37.6688 35.0539 37.6688ZM35.0539 6.02292C25.3776 6.02292 17.8775 15.3125 17.8775 23.3333C17.8775 32.2292 26.5022 36.2104 35.0539 36.2104C43.6056 36.2104 52.2304 32.2292 52.2304 23.3333C52.2304 15.3125 44.7303 6.02292 35.0539 6.02292Z" fill="#302D3D"/>
<path d="M35.0539 69.2708C31.8272 69.2714 28.6601 68.4018 25.8874 66.7539C23.1147 65.1059 20.8393 62.7408 19.3016 59.9083C15.5406 52.974 19.9734 46.6229 19.6302 47.2062C22.4724 42.4114 26.3243 38.2907 30.9193 35.1292C35.5143 31.9678 40.7425 29.8413 46.242 28.8969L49.3749 28.3573C49.8134 28.2822 50.263 28.3032 50.6925 28.4189C51.122 28.5346 51.5211 28.7422 51.8623 29.0273C52.2034 29.3125 52.4783 29.6682 52.668 30.07C52.8577 30.4718 52.9575 30.91 52.9607 31.3542V51.3917C52.9607 56.1335 51.0741 60.6812 47.7159 64.0341C44.3577 67.3871 39.8031 69.2708 35.0539 69.2708Z" fill="#9966CC"/>
<path d="M36.8431 65.5156C33.9913 65.8738 31.0976 65.3638 28.541 64.0523C25.9843 62.7409 23.8839 60.689 22.5148 58.1656C21.7704 56.7548 21.4028 55.1762 21.4475 53.5822C21.4923 51.9881 21.948 50.4326 22.7705 49.0656C25.3412 44.7215 28.8287 40.9886 32.9905 38.1263C37.1524 35.2641 41.8886 33.3413 46.87 32.4917C47.1701 32.4408 47.4776 32.4559 47.7712 32.5357C48.0648 32.6155 48.3375 32.7582 48.5703 32.9539C48.8032 33.1496 48.9905 33.3935 49.1194 33.6688C49.2482 33.9441 49.3155 34.2441 49.3165 34.5479V51.0417C49.3525 54.5552 48.1065 57.9617 45.8111 60.6252C43.5158 63.2887 40.3281 65.027 36.8431 65.5156Z" fill="#8090FA"/>
<path d="M35.0539 70C22.639 70 12.6851 57.4875 18.9876 46.8344C21.8806 41.9437 25.8066 37.7415 30.492 34.5202C35.1775 31.299 40.5099 29.1361 46.1178 28.1823L49.2581 27.6427C49.8007 27.5495 50.3572 27.5754 50.8887 27.7187C51.4203 27.862 51.9142 28.1193 52.3361 28.4725C52.758 28.8257 53.0978 29.2665 53.3318 29.7642C53.5657 30.2618 53.6883 30.8044 53.6909 31.3542V51.3917C53.6851 56.3251 51.7197 61.0549 48.2259 64.5434C44.732 68.0318 39.995 69.9942 35.0539 70ZM49.9007 29.0427C48.713 29.1707 47.533 29.363 46.3661 29.6188C40.9692 30.5397 35.838 32.6233 31.3294 35.7248C26.8207 38.8263 23.0427 42.8712 20.2583 47.5781C14.5255 57.2542 23.7856 68.5417 35.0539 68.5417C39.6076 68.5359 43.9732 66.7272 47.1931 63.5122C50.413 60.2972 52.2246 55.9384 52.2304 51.3917V31.3542C52.2246 30.7404 51.9768 30.1536 51.5408 29.7209C51.1047 29.2883 50.5155 29.0446 49.9007 29.0427Z" fill="#302D3D"/>
<path d="M35.0539 69.2708C38.2807 69.2714 41.4477 68.4018 44.2204 66.7539C46.9931 65.1059 49.2685 62.7408 50.8063 59.9083C54.5673 52.974 50.1344 46.6229 50.4777 47.2062C47.6355 42.4114 43.7835 38.2907 39.1886 35.1292C34.5936 31.9678 29.3654 29.8413 23.8659 28.8969L21.047 28.4375C20.5688 28.3546 20.0782 28.3771 19.6096 28.5034C19.141 28.6296 18.7057 28.8567 18.3342 29.1686C17.9627 29.4804 17.664 29.8696 17.4589 30.3089C17.2539 30.7481 17.1475 31.2268 17.1472 31.7115V51.399C17.1492 56.1395 19.0366 60.6853 22.3946 64.0367C25.7525 67.3881 30.306 69.2708 35.0539 69.2708Z" fill="#9966CC"/>
<path d="M33.3158 63.3135C30.414 62.8491 27.7755 61.36 25.8804 59.1172C23.9853 56.8744 22.9595 54.0269 22.9895 51.0927V38.1208C22.9914 37.6913 23.0938 37.2681 23.2886 36.8851C23.4833 36.5021 23.765 36.1698 24.1112 35.9148C24.4574 35.6598 24.8586 35.4891 25.2826 35.4163C25.7066 35.3436 26.1417 35.3708 26.5534 35.4958C34.4869 37.8201 41.2399 43.0667 45.446 50.174C46.078 51.2156 46.4302 52.4025 46.4686 53.6197C46.5069 54.837 46.2302 56.0436 45.665 57.1229C44.4895 59.2935 42.6747 61.0512 40.466 62.1584C38.2574 63.2656 35.7615 63.6688 33.3158 63.3135Z" fill="#A4A8FF"/>
<path d="M36.2297 40.1771C33.2654 38.0774 29.9701 36.4877 26.4803 35.474C26.0714 35.3589 25.6413 35.3401 25.2239 35.4191C24.8065 35.4982 24.4131 35.6728 24.0747 35.9294C23.7364 36.1859 23.4623 36.5174 23.274 36.8977C23.0857 37.2779 22.9883 37.6966 22.9895 38.1208V40.3083C22.9895 41.8902 23.6189 43.4073 24.7392 44.5259C25.8595 45.6445 27.379 46.2729 28.9633 46.2729H34.2141C34.9231 46.2664 35.6123 46.0384 36.1849 45.621C36.7576 45.2036 37.1851 44.6176 37.4073 43.9454C37.6296 43.2731 37.6356 42.5483 37.4244 41.8725C37.2132 41.1967 36.7954 40.6038 36.2297 40.1771Z" fill="white"/>
<path d="M50.4777 47.2063C47.5564 42.2686 43.5636 38.0477 38.793 34.8542C38.4737 34.6411 38.1154 34.493 37.7387 34.4181C37.362 34.3433 36.9742 34.3433 36.5975 34.4181C36.2208 34.493 35.8625 34.6411 35.5432 34.8542C35.2238 35.0673 34.9496 35.341 34.7363 35.6599C34.5229 35.9788 34.3745 36.3365 34.2996 36.7126C34.2246 37.0887 34.2246 37.4759 34.2996 37.852C34.4509 38.6117 34.8983 39.2801 35.5432 39.7104C39.5857 42.4156 42.9696 45.9911 45.446 50.174C46.078 51.2156 46.4302 52.4025 46.4686 53.6197C46.507 54.837 46.2302 56.0436 45.6651 57.1229C44.4895 59.2935 42.6747 61.0512 40.4661 62.1584C38.2574 63.2656 35.7615 63.6688 33.3158 63.3135C30.414 62.8491 27.7755 61.36 25.8804 59.1172C23.9853 56.8744 22.9595 54.0269 22.9895 51.0927V46.9C22.9895 46.1265 22.6818 45.3846 22.134 44.8376C21.5861 44.2906 20.8431 43.9833 20.0684 43.9833C19.2936 43.9833 18.5506 44.2906 18.0028 44.8376C17.455 45.3846 17.1472 46.1265 17.1472 46.9V50.9615C17.1472 60.776 24.8883 69.0885 34.718 69.2708C46.6656 69.4896 56.5902 57.4948 50.4777 47.2063Z" fill="#5D90EB"/>
<path d="M47.593 59.4635C47.0203 59.0291 46.3073 58.8208 45.5904 58.8787C44.8735 58.9366 44.2032 59.2564 43.7079 59.7771C41.6168 61.9458 38.7826 63.2461 35.7725 63.4178C32.7624 63.5895 29.7983 62.6199 27.4735 60.7031C24.7349 58.4208 20.397 62.3073 23.6979 65.0781C27.1503 67.99 31.5867 69.4744 36.0993 69.2277C40.6118 68.981 44.8594 67.0218 47.9728 63.751C48.2531 63.4557 48.4674 63.1042 48.6014 62.7199C48.7355 62.3356 48.7863 61.9272 48.7504 61.5219C48.7144 61.1165 48.5927 60.7234 48.3932 60.3685C48.1937 60.0137 47.9209 59.7052 47.593 59.4635Z" fill="#9966CC"/>
<path d="M35.0539 70C30.1129 69.9942 25.3758 68.0318 21.882 64.5433C18.3881 61.0549 16.4227 56.3251 16.4169 51.3917V31.7042C16.4178 31.1127 16.5481 30.5285 16.7986 29.9926C17.0492 29.4566 17.4139 28.9817 17.8674 28.6012C18.3209 28.2206 18.8522 27.9435 19.4241 27.7893C19.996 27.6351 20.5947 27.6074 21.1784 27.7083L24.0046 28.1969C29.6087 29.151 34.9374 31.3126 39.6201 34.5312C44.3028 37.7497 48.2272 41.9481 51.1203 46.8344C57.4227 57.4875 47.4689 70 35.0539 70ZM20.4481 29.0937C19.7592 29.0957 19.099 29.3698 18.6119 29.8562C18.1248 30.3426 17.8502 31.0017 17.8483 31.6896V51.3771C17.8493 53.6321 18.2951 55.8649 19.1602 57.9479C20.0254 60.0309 21.293 61.9234 22.8907 63.5173C24.4884 65.1112 26.3849 66.3752 28.4719 67.2373C30.5588 68.0994 32.7954 68.5426 35.0539 68.5417C46.3223 68.5417 55.5824 57.2542 49.8496 47.5781C47.0651 42.8712 43.2872 38.8263 38.7785 35.7248C34.2698 32.6233 29.1386 30.5397 23.7417 29.6187C22.6559 29.3753 21.5559 29.2 20.4481 29.0937Z" fill="#302D3D"/>
<path d="M38.7857 18.6594C38.7536 18.5689 38.7396 18.473 38.7446 18.3771C38.7496 18.2812 38.7735 18.1872 38.8149 18.1006C38.8562 18.0139 38.9143 17.9362 38.9857 17.872C39.0572 17.8077 39.1406 17.7581 39.2312 17.726C39.3218 17.694 39.4179 17.68 39.5139 17.685C39.6099 17.69 39.704 17.7138 39.7908 17.7551C39.8776 17.7964 39.9554 17.8544 40.0198 17.9257C40.0842 17.997 40.1338 18.0803 40.166 18.1708C40.3022 18.5451 40.5505 18.8684 40.8771 19.0968C41.2037 19.3253 41.5929 19.4479 41.9917 19.4479C42.3905 19.4479 42.7796 19.3253 43.1063 19.0968C43.4329 18.8684 43.6812 18.5451 43.8174 18.1708C43.8476 18.0799 43.8955 17.9957 43.9583 17.9232C44.021 17.8507 44.0975 17.7913 44.1833 17.7483C44.2691 17.7053 44.3625 17.6796 44.4582 17.6726C44.554 17.6657 44.6501 17.6776 44.7412 17.7078C44.8323 17.738 44.9166 17.7858 44.9892 17.8484C45.0618 17.9111 45.1214 17.9875 45.1644 18.0731C45.2075 18.1588 45.2332 18.252 45.2402 18.3476C45.2471 18.4432 45.2352 18.5392 45.205 18.6302C44.9705 19.2912 44.5374 19.8639 43.9648 20.2699C43.3922 20.676 42.7079 20.8956 42.0056 20.8988C41.3033 20.902 40.6171 20.6886 40.0408 20.2878C39.4645 19.887 39.0262 19.3183 38.7857 18.6594Z" fill="#302D3D"/>
<path d="M25.1366 18.6594C25.0717 18.4766 25.0822 18.2756 25.1657 18.1006C25.2493 17.9256 25.399 17.7908 25.5821 17.726C25.7651 17.6613 25.9664 17.6717 26.1417 17.7551C26.317 17.8385 26.452 17.9881 26.5168 18.1708C26.6531 18.5451 26.9014 18.8684 27.228 19.0968C27.5546 19.3253 27.9438 19.4479 28.3426 19.4479C28.7414 19.4479 29.1305 19.3253 29.4571 19.0968C29.7838 18.8684 30.0321 18.5451 30.1683 18.1708C30.241 18.0037 30.3739 17.8697 30.5406 17.7955C30.7073 17.7212 30.8958 17.712 31.069 17.7697C31.2422 17.8273 31.3875 17.9476 31.4763 18.1069C31.565 18.2662 31.5908 18.4529 31.5485 18.6302C31.3159 19.292 30.8839 19.8658 30.3118 20.2727C29.7396 20.6796 29.0553 20.8998 28.3529 20.903C27.6504 20.9062 26.9642 20.6922 26.3883 20.2905C25.8125 19.8888 25.3752 19.319 25.1366 18.6594Z" fill="#302D3D"/>
<path d="M35.3753 26.1479C35.1816 26.1479 34.9958 26.0711 34.8589 25.9343C34.7219 25.7976 34.645 25.6121 34.645 25.4187V24.1281C34.645 23.9347 34.7219 23.7493 34.8589 23.6125C34.9958 23.4758 35.1816 23.399 35.3753 23.399C35.5689 23.399 35.7547 23.4758 35.8917 23.6125C36.0286 23.7493 36.1056 23.9347 36.1056 24.1281V25.4187C36.1056 25.6121 36.0286 25.7976 35.8917 25.9343C35.7547 26.0711 35.5689 26.1479 35.3753 26.1479Z" fill="#302D3D"/>
<path d="M35.3168 8.75C34.1547 8.75 33.0402 8.28906 32.2185 7.46859C31.3968 6.64812 30.9351 5.53532 30.9351 4.375C30.9351 3.21468 31.3968 2.10188 32.2185 1.28141C33.0402 0.460936 34.1547 0 35.3168 0C35.5105 0 35.6963 0.0768227 35.8332 0.213568C35.9702 0.350313 36.0471 0.53578 36.0471 0.729167C36.0471 0.922554 35.9702 1.10802 35.8332 1.24477C35.6963 1.38151 35.5105 1.45833 35.3168 1.45833C34.5421 1.45833 33.7991 1.76562 33.2513 2.31261C32.7034 2.85959 32.3957 3.60145 32.3957 4.375C32.3957 5.14855 32.7034 5.89041 33.2513 6.4374C33.7991 6.98438 34.5421 7.29167 35.3168 7.29167C35.5105 7.29167 35.6963 7.36849 35.8332 7.50524C35.9702 7.64198 36.0471 7.82745 36.0471 8.02083C36.0471 8.21422 35.9702 8.39969 35.8332 8.53643C35.6963 8.67318 35.5105 8.75 35.3168 8.75Z" fill="#302D3D"/>
<path d="M21.7553 69.2708C26.9825 69.2708 31.2199 65.0399 31.2199 59.8208C31.2199 54.6017 26.9825 50.3708 21.7553 50.3708C16.5282 50.3708 12.2908 54.6017 12.2908 59.8208C12.2908 65.0399 16.5282 69.2708 21.7553 69.2708Z" fill="#F64431"/>
<path d="M21.7553 70C19.7332 70 17.7565 69.4013 16.0752 68.2796C14.3938 67.1579 13.0834 65.5636 12.3095 63.6982C11.5357 61.8329 11.3332 59.7803 11.7277 57.8001C12.1222 55.8199 13.096 54.0009 14.5258 52.5733C15.9557 51.1456 17.7775 50.1734 19.7607 49.7795C21.744 49.3856 23.7997 49.5878 25.6679 50.3604C27.5361 51.133 29.1329 52.4415 30.2563 54.1202C31.3798 55.799 31.9794 57.7726 31.9794 59.7917C31.9794 62.4991 30.9022 65.0956 28.9849 67.01C27.0675 68.9245 24.4669 70 21.7553 70ZM21.7553 51.1C20.0221 51.1 18.3278 51.6132 16.8866 52.5746C15.4455 53.5361 14.3222 54.9027 13.6589 56.5015C12.9957 58.1004 12.8221 59.8597 13.1603 61.557C13.4984 63.2544 14.333 64.8135 15.5586 66.0372C16.7842 67.2609 18.3457 68.0943 20.0457 68.4319C21.7456 68.7695 23.5077 68.5962 25.109 67.9339C26.7103 67.2717 28.079 66.1502 29.0419 64.7112C30.0049 63.2723 30.5188 61.5806 30.5188 59.85C30.5188 57.5294 29.5955 55.3038 27.9521 53.6628C26.3086 52.0219 24.0796 51.1 21.7553 51.1Z" fill="#302D3D"/>
<path d="M26.0495 58.4646H23.1137V55.5333H20.397V58.4646H17.4612V61.1771H20.397V64.1083H23.1137V61.1771H26.0495V58.4646Z" fill="white"/>
<path d="M23.1137 64.8375H20.397C20.2033 64.8375 20.0176 64.7607 19.8806 64.6239C19.7437 64.4872 19.6667 64.3017 19.6667 64.1083V61.9208H17.4758C17.2822 61.9208 17.0964 61.844 16.9595 61.7073C16.8225 61.5705 16.7456 61.3851 16.7456 61.1917V58.4646C16.7456 58.2712 16.8225 58.0857 16.9595 57.949C17.0964 57.8122 17.2822 57.7354 17.4758 57.7354H19.6667V55.5479C19.6667 55.3545 19.7437 55.1691 19.8806 55.0323C20.0176 54.8956 20.2033 54.8188 20.397 54.8188H23.1137C23.3074 54.8188 23.4931 54.8956 23.6301 55.0323C23.767 55.1691 23.844 55.3545 23.844 55.5479V57.7354H26.0349C26.2285 57.7354 26.4143 57.8122 26.5512 57.949C26.6882 58.0857 26.7651 58.2712 26.7651 58.4646V61.1771C26.7651 61.3705 26.6882 61.5559 26.5512 61.6927C26.4143 61.8294 26.2285 61.9063 26.0349 61.9063H23.844V64.0938C23.8459 64.1907 23.8285 64.2871 23.7926 64.3773C23.7568 64.4674 23.7033 64.5495 23.6353 64.6188C23.5673 64.6881 23.4861 64.7431 23.3966 64.7806C23.307 64.8182 23.2108 64.8375 23.1137 64.8375ZM21.1273 63.3792H22.3834V61.1917C22.3834 60.9983 22.4603 60.8128 22.5973 60.6761C22.7343 60.5393 22.92 60.4625 23.1137 60.4625H25.3046V59.1938H23.1137C22.92 59.1938 22.7343 59.1169 22.5973 58.9802C22.4603 58.8434 22.3834 58.658 22.3834 58.4646V56.2771H21.1273V58.4646C21.1273 58.658 21.0504 58.8434 20.9134 58.9802C20.7764 59.1169 20.5907 59.1938 20.397 59.1938H18.2061V60.4479H20.397C20.5907 60.4479 20.7764 60.5247 20.9134 60.6615C21.0504 60.7982 21.1273 60.9837 21.1273 61.1771V63.3792Z" fill="#302D3D"/>
</svg>
