<svg width="25" height="15" viewBox="0 0 25 15" fill="none" xmlns="http://www.w3.org/2000/svg">
<path opacity="0.8" d="M0.459068 14V0.0539995H2.32107V14H0.459068ZM9.02807 14L4.43007 7.825H6.61507L11.2891 14H9.02807ZM1.61807 8.984V7.331H5.34207C5.92474 7.331 6.42507 7.21067 6.84307 6.97C7.26107 6.72933 7.58407 6.4 7.81207 5.982C8.04007 5.55133 8.15407 5.06367 8.15407 4.519C8.15407 3.97433 8.04007 3.493 7.81207 3.075C7.58407 2.64433 7.26107 2.30867 6.84307 2.068C6.42507 1.81467 5.92474 1.688 5.34207 1.688H1.61807V0.0539995H5.00007C6.0134 0.0539995 6.90007 0.205999 7.66007 0.509999C8.42007 0.813999 9.00907 1.28267 9.42707 1.916C9.84507 2.54933 10.0541 3.36633 10.0541 4.367V4.671C10.0541 5.67167 9.83874 6.48867 9.40807 7.122C8.99007 7.75533 8.40107 8.224 7.64107 8.528C6.89374 8.832 6.0134 8.984 5.00007 8.984H1.61807ZM19.1796 14.342C17.9256 14.342 16.8679 14.1013 16.0066 13.62C15.1579 13.126 14.5119 12.442 14.0686 11.568C13.6379 10.6813 13.4226 9.65533 13.4226 8.49V0.13H15.2846V8.718C15.2846 9.49067 15.4302 10.1747 15.7216 10.77C16.0256 11.3527 16.4689 11.8087 17.0516 12.138C17.6342 12.4673 18.3436 12.632 19.1796 12.632C20.0156 12.632 20.7186 12.4737 21.2886 12.157C21.8712 11.8277 22.3082 11.3717 22.5996 10.789C22.9036 10.1937 23.0556 9.50333 23.0556 8.718V0.13H24.9176V8.49C24.9176 9.65533 24.7022 10.6813 24.2716 11.568C23.8409 12.442 23.2012 13.126 22.3526 13.62C21.5039 14.1013 20.4462 14.342 19.1796 14.342Z" fill="#3B485B"/>
</svg>
