<svg width="152" height="70" viewBox="0 0 152 70" fill="none" xmlns="http://www.w3.org/2000/svg">
<path d="M75.5592 48.12V45.42H81.0192C82.3392 45.42 83.5092 45.21 84.5292 44.79C85.5692 44.35 86.4492 43.75 87.1692 42.99C87.9092 42.23 88.4692 41.34 88.8492 40.32C89.2292 39.3 89.4192 38.2 89.4192 37.02C89.4192 35.78 89.2292 34.66 88.8492 33.66C88.4692 32.64 87.9092 31.76 87.1692 31.02C86.4492 30.26 85.5692 29.68 84.5292 29.28C83.5092 28.88 82.3392 28.68 81.0192 28.68H75.5592V25.98H80.7192C82.6992 25.98 84.4192 26.29 85.8792 26.91C87.3392 27.51 88.5492 28.33 89.5092 29.37C90.4892 30.39 91.2192 31.54 91.6992 32.82C92.1792 34.08 92.4192 35.37 92.4192 36.69V37.35C92.4192 38.63 92.1792 39.91 91.6992 41.19C91.2192 42.47 90.4892 43.63 89.5092 44.67C88.5492 45.71 87.3392 46.55 85.8792 47.19C84.4192 47.81 82.6992 48.12 80.7192 48.12H75.5592ZM73.2192 48.12V25.98H76.1592V48.12H73.2192ZM97.3097 48V31.98H100.19V48H97.3097ZM94.8497 34.26V31.98H100.19V34.26H94.8497ZM98.1197 29.4C97.4797 29.4 96.9997 29.23 96.6797 28.89C96.3797 28.55 96.2297 28.12 96.2297 27.6C96.2297 27.08 96.3797 26.65 96.6797 26.31C96.9997 25.97 97.4797 25.8 98.1197 25.8C98.7597 25.8 99.2297 25.97 99.5297 26.31C99.8497 26.65 100.01 27.08 100.01 27.6C100.01 28.12 99.8497 28.55 99.5297 28.89C99.2297 29.23 98.7597 29.4 98.1197 29.4ZM105.758 48V31.98H108.038V38.85H107.678C107.678 37.27 107.888 35.94 108.308 34.86C108.748 33.76 109.408 32.93 110.288 32.37C111.168 31.79 112.278 31.5 113.618 31.5H113.738C115.758 31.5 117.248 32.13 118.208 33.39C119.188 34.65 119.678 36.47 119.678 38.85V48H116.798V38.25C116.798 37.01 116.448 36.02 115.748 35.28C115.048 34.52 114.088 34.14 112.868 34.14C111.608 34.14 110.588 34.53 109.808 35.31C109.028 36.09 108.638 37.13 108.638 38.43V48H105.758ZM134.638 48V43.2H134.158V37.65C134.158 36.55 133.868 35.72 133.288 35.16C132.728 34.6 131.898 34.32 130.798 34.32C130.178 34.32 129.538 34.33 128.878 34.35C128.218 34.37 127.588 34.39 126.988 34.41C126.388 34.43 125.868 34.46 125.428 34.5V31.98C125.868 31.94 126.328 31.91 126.808 31.89C127.308 31.85 127.818 31.83 128.338 31.83C128.858 31.81 129.358 31.8 129.838 31.8C131.478 31.8 132.818 32 133.858 32.4C134.898 32.78 135.668 33.41 136.168 34.29C136.668 35.17 136.918 36.36 136.918 37.86V48H134.638ZM129.388 48.42C128.188 48.42 127.148 48.22 126.268 47.82C125.408 47.4 124.738 46.8 124.258 46.02C123.798 45.24 123.568 44.3 123.568 43.2C123.568 42.06 123.818 41.11 124.318 40.35C124.838 39.59 125.588 39.02 126.568 38.64C127.548 38.24 128.728 38.04 130.108 38.04H134.458V40.2H129.988C128.828 40.2 127.938 40.48 127.318 41.04C126.698 41.6 126.388 42.32 126.388 43.2C126.388 44.08 126.698 44.79 127.318 45.33C127.938 45.87 128.828 46.14 129.988 46.14C130.668 46.14 131.318 46.02 131.938 45.78C132.558 45.52 133.068 45.1 133.468 44.52C133.888 43.92 134.118 43.1 134.158 42.06L134.938 43.2C134.838 44.34 134.558 45.3 134.098 46.08C133.658 46.84 133.038 47.42 132.238 47.82C131.458 48.22 130.508 48.42 129.388 48.42ZM141.634 48V44.34H145.114V48H141.634Z" fill="black"/>
<path d="M54.1511 24.7917H15.9569C14.9884 24.7917 14.0597 24.4076 13.3749 23.7238C12.6901 23.0401 12.3054 22.1128 12.3054 21.1458C12.3054 20.1789 12.6901 19.2516 13.3749 18.5678C14.0597 17.8841 14.9884 17.5 15.9569 17.5H54.1511C55.1195 17.5 56.0482 17.8841 56.733 18.5678C57.4178 19.2516 57.8025 20.1789 57.8025 21.1458C57.8025 22.1128 57.4178 23.0401 56.733 23.7238C56.0482 24.4076 55.1195 24.7917 54.1511 24.7917Z" fill="#FB9C88"/>
<path d="M54.1509 25.5208H15.9567C14.7946 25.5208 13.6801 25.0599 12.8583 24.2394C12.0366 23.419 11.575 22.3062 11.575 21.1458C11.575 19.9855 12.0366 18.8727 12.8583 18.0523C13.6801 17.2318 14.7946 16.7708 15.9567 16.7708H54.1509C55.313 16.7708 56.4275 17.2318 57.2492 18.0523C58.071 18.8727 58.5326 19.9855 58.5326 21.1458C58.5326 22.3062 58.071 23.419 57.2492 24.2394C56.4275 25.0599 55.313 25.5208 54.1509 25.5208ZM15.9567 18.2292C15.182 18.2292 14.4389 18.5365 13.8911 19.0834C13.3433 19.6304 13.0355 20.3723 13.0355 21.1458C13.0355 21.9194 13.3433 22.6613 13.8911 23.2082C14.4389 23.7552 15.182 24.0625 15.9567 24.0625H54.1509C54.9256 24.0625 55.6686 23.7552 56.2164 23.2082C56.7643 22.6613 57.072 21.9194 57.072 21.1458C57.072 20.3723 56.7643 19.6304 56.2164 19.0834C55.6686 18.5365 54.9256 18.2292 54.1509 18.2292H15.9567Z" fill="#302D3D"/>
<path d="M44.9567 35C39.1947 37.6104 30.9205 37.6104 25.1512 35C9.14325 27.7448 19.6156 5.29376 35.0539 5.29376C50.4923 5.29376 60.9573 27.7448 44.9567 35Z" fill="#FBD8C4"/>
<path d="M35.0539 5.29376C24.326 5.29376 15.7597 16.3188 17.3225 25.4698C18.6005 33.425 26.8601 36.9396 35.0539 36.9396C43.2478 36.9396 51.595 33.3813 52.8073 25.3313C54.2533 16.2531 45.7965 5.29376 35.0539 5.29376ZM49.1997 24.7917C48.2722 30.9094 41.349 33.2938 35.0539 33.2938C28.883 33.2938 21.9087 30.9604 20.9301 24.8938C19.7544 17.9521 26.4438 8.9396 35.0539 8.9396C43.6641 8.9396 50.2805 18.0469 49.1997 24.7917Z" fill="#FBC9B0"/>
<path d="M41.108 10.4781C41.5312 10.7102 42.0294 10.7649 42.493 10.6302C42.9566 10.4955 43.3476 10.1824 43.58 9.75988C43.8124 9.33733 43.8672 8.8399 43.7323 8.37702C43.5974 7.91414 43.2839 7.52372 42.8607 7.29165C40.1479 5.80314 37.0662 5.11814 33.9772 5.31704C30.8882 5.51594 27.9202 6.59049 25.4214 8.41457C25.2248 8.54863 25.0565 8.72004 24.9263 8.91901C24.796 9.11799 24.7063 9.34063 24.6622 9.57422C24.6181 9.80782 24.6206 10.0478 24.6694 10.2805C24.7182 10.5131 24.8124 10.7339 24.9467 10.9302C25.0809 11.1265 25.2526 11.2945 25.4519 11.4245C25.6512 11.5546 25.8741 11.6442 26.1081 11.6882C26.3421 11.7322 26.5824 11.7298 26.8154 11.681C27.0484 11.6323 27.2696 11.5382 27.4662 11.4042C29.4181 9.97407 31.737 9.12767 34.1524 8.9637C36.5679 8.79973 38.9802 9.32496 41.108 10.4781Z" fill="#FBFBFF"/>
<path d="M49.9008 24.6677C44.7718 25.1647 39.7577 26.4896 35.054 28.5906C31.0064 26.7484 26.7106 25.5078 22.3031 24.9083C21.6781 24.8052 21.0366 24.8847 20.4558 25.1371C19.875 25.3895 19.3796 25.8042 19.0293 26.3311C18.679 26.8581 18.4887 27.4749 18.4813 28.1073C18.4739 28.7398 18.6497 29.3609 18.9876 29.8958C22.2301 35 28.956 36.9542 35.054 36.9542C41.9698 36.9542 49.5429 34.424 52.1062 27.9636C52.2525 27.6012 52.308 27.2087 52.2678 26.8201C52.2276 26.4316 52.093 26.0587 51.8756 25.7338C51.6583 25.409 51.3647 25.1421 51.0206 24.9563C50.6764 24.7705 50.292 24.6714 49.9008 24.6677Z" fill="#FB9C88"/>
<path d="M35.0539 37.6688C23.9096 37.6688 16.4169 31.9083 16.4169 23.3333C16.5491 18.5338 18.4954 13.9621 21.8648 10.5365C29.416 2.56667 40.7063 2.58855 48.2429 10.5365C51.6123 13.9621 53.5586 18.5338 53.6909 23.3333C53.6909 31.9083 46.1981 37.6688 35.0539 37.6688ZM35.0539 6.02292C25.3775 6.02292 17.8775 15.3125 17.8775 23.3333C17.8775 32.2292 26.5022 36.2104 35.0539 36.2104C43.6056 36.2104 52.2303 32.2292 52.2303 23.3333C52.2303 15.3125 44.7302 6.02292 35.0539 6.02292Z" fill="#302D3D"/>
<path d="M35.0539 69.2708C31.8272 69.2714 28.6601 68.4018 25.8874 66.7539C23.1147 65.1059 20.8393 62.7408 19.3016 59.9083C15.5406 52.974 19.9734 46.6229 19.6302 47.2062C22.4724 42.4114 26.3243 38.2907 30.9193 35.1292C35.5143 31.9678 40.7425 29.8413 46.242 28.8969L49.3749 28.3573C49.8134 28.2822 50.263 28.3032 50.6925 28.4189C51.122 28.5346 51.5211 28.7422 51.8623 29.0273C52.2034 29.3125 52.4783 29.6682 52.668 30.07C52.8577 30.4718 52.9575 30.91 52.9607 31.3542V51.3917C52.9607 56.1335 51.0741 60.6812 47.7159 64.0341C44.3577 67.3871 39.8031 69.2708 35.0539 69.2708Z" fill="#9966CC"/>
<path d="M36.8431 65.5156C33.9913 65.8738 31.0975 65.3638 28.5409 64.0523C25.9843 62.7409 23.8839 60.689 22.5148 58.1656C21.7703 56.7548 21.4027 55.1762 21.4475 53.5822C21.4923 51.9881 21.9479 50.4326 22.7704 49.0656C25.3411 44.7215 28.8287 40.9886 32.9905 38.1263C37.1523 35.2641 41.8886 33.3413 46.87 32.4917C47.17 32.4408 47.4775 32.4559 47.7712 32.5357C48.0648 32.6155 48.3375 32.7582 48.5703 32.9539C48.8031 33.1496 48.9905 33.3935 49.1193 33.6688C49.2482 33.9441 49.3154 34.2441 49.3164 34.5479V51.0417C49.3524 54.5552 48.1064 57.9617 45.8111 60.6252C43.5158 63.2887 40.3281 65.027 36.8431 65.5156Z" fill="#8090FA"/>
<path d="M35.0539 70C22.639 70 12.6851 57.4875 18.9875 46.8344C21.8806 41.9437 25.8065 37.7415 30.492 34.5202C35.1775 31.299 40.5098 29.1361 46.1178 28.1823L49.258 27.6427C49.8007 27.5495 50.3571 27.5754 50.8887 27.7187C51.4203 27.862 51.9142 28.1193 52.3361 28.4725C52.758 28.8257 53.0978 29.2665 53.3317 29.7642C53.5657 30.2618 53.6883 30.8044 53.6909 31.3542V51.3917C53.6851 56.3251 51.7197 61.0549 48.2258 64.5434C44.732 68.0318 39.995 69.9942 35.0539 70ZM49.9007 29.0427C48.7129 29.1707 47.533 29.363 46.3661 29.6188C40.9692 30.5397 35.838 32.6233 31.3293 35.7248C26.8206 38.8263 23.0427 42.8712 20.2582 47.5781C14.5254 57.2542 23.7855 68.5417 35.0539 68.5417C39.6076 68.5359 43.9731 66.7272 47.1931 63.5122C50.413 60.2972 52.2245 55.9384 52.2303 51.3917V31.3542C52.2246 30.7404 51.9768 30.1536 51.5407 29.7209C51.1047 29.2883 50.5154 29.0446 49.9007 29.0427Z" fill="#302D3D"/>
<path d="M35.0539 69.2708C38.2807 69.2714 41.4477 68.4018 44.2204 66.7539C46.9931 65.1059 49.2685 62.7408 50.8063 59.9083C54.5673 52.974 50.1344 46.6229 50.4777 47.2062C47.6355 42.4114 43.7835 38.2907 39.1886 35.1292C34.5936 31.9678 29.3654 29.8413 23.8659 28.8969L21.047 28.4375C20.5688 28.3546 20.0782 28.3771 19.6096 28.5034C19.141 28.6296 18.7057 28.8567 18.3342 29.1686C17.9627 29.4804 17.664 29.8696 17.4589 30.3089C17.2539 30.7481 17.1475 31.2268 17.1472 31.7115V51.399C17.1492 56.1395 19.0366 60.6853 22.3946 64.0367C25.7525 67.3881 30.306 69.2708 35.0539 69.2708Z" fill="#9966CC"/>
<path d="M33.3158 63.3135C30.414 62.8491 27.7755 61.36 25.8804 59.1172C23.9853 56.8744 22.9595 54.0269 22.9895 51.0927V38.1208C22.9914 37.6913 23.0938 37.2681 23.2886 36.8851C23.4833 36.5021 23.765 36.1698 24.1112 35.9148C24.4574 35.6598 24.8586 35.4891 25.2826 35.4163C25.7066 35.3436 26.1417 35.3708 26.5534 35.4958C34.4869 37.8201 41.2399 43.0667 45.446 50.174C46.078 51.2156 46.4302 52.4025 46.4686 53.6197C46.5069 54.837 46.2302 56.0436 45.665 57.1229C44.4895 59.2935 42.6747 61.0512 40.466 62.1584C38.2574 63.2656 35.7615 63.6688 33.3158 63.3135Z" fill="#A4A8FF"/>
<path d="M36.2297 40.1771C33.2654 38.0774 29.9701 36.4877 26.4803 35.474C26.0714 35.3589 25.6413 35.3401 25.2239 35.4191C24.8064 35.4982 24.4131 35.6728 24.0747 35.9294C23.7364 36.1859 23.4622 36.5174 23.2739 36.8977C23.0856 37.2779 22.9883 37.6966 22.9895 38.1208V40.3083C22.9895 41.8902 23.6189 43.4073 24.7392 44.5259C25.8595 45.6445 27.3789 46.2729 28.9633 46.2729H34.2141C34.9231 46.2664 35.6122 46.0384 36.1849 45.621C36.7576 45.2036 37.185 44.6176 37.4073 43.9454C37.6296 43.2731 37.6356 42.5483 37.4244 41.8725C37.2132 41.1967 36.7954 40.6038 36.2297 40.1771Z" fill="white"/>
<path d="M50.4777 47.2063C47.5564 42.2686 43.5636 38.0477 38.793 34.8542C38.4737 34.6411 38.1154 34.493 37.7387 34.4181C37.362 34.3433 36.9742 34.3433 36.5975 34.4181C36.2208 34.493 35.8625 34.6411 35.5432 34.8542C35.2238 35.0673 34.9496 35.341 34.7363 35.6599C34.5229 35.9788 34.3745 36.3365 34.2996 36.7126C34.2246 37.0887 34.2246 37.4759 34.2996 37.852C34.4509 38.6117 34.8983 39.2801 35.5432 39.7104C39.5857 42.4156 42.9696 45.9911 45.446 50.174C46.078 51.2156 46.4302 52.4025 46.4686 53.6197C46.507 54.837 46.2302 56.0436 45.6651 57.1229C44.4895 59.2935 42.6747 61.0512 40.4661 62.1584C38.2574 63.2656 35.7615 63.6688 33.3158 63.3135C30.414 62.8491 27.7755 61.36 25.8804 59.1172C23.9853 56.8744 22.9595 54.0269 22.9895 51.0927V46.9C22.9895 46.1265 22.6818 45.3846 22.134 44.8376C21.5861 44.2906 20.8431 43.9833 20.0684 43.9833C19.2936 43.9833 18.5506 44.2906 18.0028 44.8376C17.455 45.3846 17.1472 46.1265 17.1472 46.9V50.9615C17.1472 60.776 24.8883 69.0885 34.718 69.2708C46.6656 69.4896 56.5902 57.4948 50.4777 47.2063Z" fill="#5D90EB"/>
<path d="M47.593 59.4635C47.0203 59.0291 46.3073 58.8208 45.5904 58.8787C44.8735 58.9366 44.2032 59.2564 43.7078 59.7771C41.6168 61.9458 38.7826 63.2461 35.7725 63.4178C32.7624 63.5895 29.7983 62.6199 27.4735 60.7031C24.7349 58.4208 20.397 62.3073 23.6979 65.0781C27.1503 67.99 31.5867 69.4744 36.0992 69.2277C40.6118 68.981 44.8594 67.0218 47.9727 63.751C48.2531 63.4557 48.4674 63.1042 48.6014 62.7199C48.7355 62.3356 48.7862 61.9272 48.7503 61.5219C48.7144 61.1165 48.5927 60.7234 48.3931 60.3685C48.1936 60.0137 47.9209 59.7052 47.593 59.4635Z" fill="#9966CC"/>
<path d="M35.0539 70C30.1128 69.9942 25.3758 68.0318 21.8819 64.5433C18.3881 61.0549 16.4227 56.3251 16.4169 51.3917V31.7042C16.4178 31.1127 16.548 30.5285 16.7986 29.9926C17.0491 29.4566 17.4139 28.9817 17.8674 28.6012C18.3208 28.2206 18.8521 27.9435 19.424 27.7893C19.9959 27.6351 20.5947 27.6074 21.1784 27.7083L24.0046 28.1969C29.6087 29.151 34.9373 31.3126 39.6201 34.5312C44.3028 37.7497 48.2271 41.9481 51.1203 46.8344C57.4227 57.4875 47.4688 70 35.0539 70ZM20.4481 29.0937C19.7591 29.0957 19.099 29.3698 18.6118 29.8562C18.1247 30.3426 17.8502 31.0017 17.8482 31.6896V51.3771C17.8492 53.6321 18.295 55.8649 19.1602 57.9479C20.0254 60.0309 21.293 61.9234 22.8907 63.5173C24.4884 65.1112 26.3848 66.3752 28.4718 67.2373C30.5588 68.0994 32.7954 68.5426 35.0539 68.5417C46.3223 68.5417 55.5823 57.2542 49.8496 47.5781C47.0651 42.8712 43.2871 38.8263 38.7785 35.7248C34.2698 32.6233 29.1386 30.5397 23.7417 29.6187C22.6559 29.3753 21.5558 29.2 20.4481 29.0937Z" fill="#302D3D"/>
<path d="M38.7856 18.6594C38.7535 18.5689 38.7395 18.473 38.7445 18.3771C38.7495 18.2812 38.7734 18.1872 38.8148 18.1006C38.8561 18.0139 38.9142 17.9362 38.9856 17.872C39.057 17.8077 39.1405 17.7581 39.2311 17.726C39.3217 17.694 39.4178 17.68 39.5138 17.685C39.6098 17.69 39.7039 17.7138 39.7907 17.7551C39.8775 17.7964 39.9553 17.8544 40.0197 17.9257C40.0841 17.997 40.1337 18.0803 40.1659 18.1708C40.3021 18.5451 40.5504 18.8684 40.877 19.0968C41.2036 19.3253 41.5928 19.4479 41.9916 19.4479C42.3904 19.4479 42.7795 19.3253 43.1062 19.0968C43.4328 18.8684 43.6811 18.5451 43.8173 18.1708C43.8475 18.0799 43.8954 17.9957 43.9582 17.9232C44.0209 17.8507 44.0974 17.7913 44.1832 17.7483C44.269 17.7053 44.3624 17.6796 44.4581 17.6726C44.5539 17.6657 44.65 17.6776 44.7411 17.7078C44.8322 17.738 44.9165 17.7858 44.9891 17.8484C45.0617 17.9111 45.1213 17.9875 45.1643 18.0731C45.2074 18.1588 45.2331 18.252 45.2401 18.3476C45.247 18.4432 45.2351 18.5392 45.2049 18.6302C44.9704 19.2912 44.5373 19.8639 43.9647 20.2699C43.3921 20.676 42.7078 20.8956 42.0055 20.8988C41.3032 20.902 40.617 20.6886 40.0407 20.2878C39.4644 19.887 39.0261 19.3183 38.7856 18.6594Z" fill="#302D3D"/>
<path d="M25.1366 18.6594C25.0717 18.4766 25.0822 18.2756 25.1657 18.1006C25.2492 17.9256 25.399 17.7908 25.582 17.726C25.7651 17.6613 25.9664 17.6717 26.1417 17.7551C26.317 17.8385 26.4519 17.9881 26.5168 18.1708C26.653 18.5451 26.9013 18.8684 27.228 19.0968C27.5546 19.3253 27.9437 19.4479 28.3425 19.4479C28.7413 19.4479 29.1305 19.3253 29.4571 19.0968C29.7837 18.8684 30.032 18.5451 30.1683 18.1708C30.241 18.0037 30.3738 17.8697 30.5406 17.7955C30.7073 17.7212 30.8958 17.712 31.069 17.7697C31.2422 17.8273 31.3875 17.9476 31.4762 18.1069C31.565 18.2662 31.5908 18.4529 31.5485 18.6302C31.3159 19.292 30.8839 19.8658 30.3117 20.2727C29.7396 20.6796 29.0553 20.8998 28.3528 20.903C27.6504 20.9062 26.9641 20.6922 26.3883 20.2905C25.8124 19.8888 25.3752 19.319 25.1366 18.6594Z" fill="#302D3D"/>
<path d="M35.3752 26.1479C35.1815 26.1479 34.9958 26.0711 34.8588 25.9343C34.7218 25.7976 34.6449 25.6121 34.6449 25.4187V24.1281C34.6449 23.9347 34.7218 23.7493 34.8588 23.6125C34.9958 23.4758 35.1815 23.399 35.3752 23.399C35.5689 23.399 35.7546 23.4758 35.8916 23.6125C36.0285 23.7493 36.1055 23.9347 36.1055 24.1281V25.4187C36.1055 25.6121 36.0285 25.7976 35.8916 25.9343C35.7546 26.0711 35.5689 26.1479 35.3752 26.1479Z" fill="#302D3D"/>
<path d="M35.3168 8.75C34.1547 8.75 33.0402 8.28906 32.2184 7.46859C31.3967 6.64812 30.9351 5.53532 30.9351 4.375C30.9351 3.21468 31.3967 2.10188 32.2184 1.28141C33.0402 0.460936 34.1547 0 35.3168 0C35.5105 0 35.6962 0.0768227 35.8332 0.213568C35.9701 0.350313 36.0471 0.53578 36.0471 0.729167C36.0471 0.922554 35.9701 1.10802 35.8332 1.24477C35.6962 1.38151 35.5105 1.45833 35.3168 1.45833C34.5421 1.45833 33.7991 1.76562 33.2512 2.31261C32.7034 2.85959 32.3956 3.60145 32.3956 4.375C32.3956 5.14855 32.7034 5.89041 33.2512 6.4374C33.7991 6.98438 34.5421 7.29167 35.3168 7.29167C35.5105 7.29167 35.6962 7.36849 35.8332 7.50524C35.9701 7.64198 36.0471 7.82745 36.0471 8.02083C36.0471 8.21422 35.9701 8.39969 35.8332 8.53643C35.6962 8.67318 35.5105 8.75 35.3168 8.75Z" fill="#302D3D"/>
<path d="M21.7553 69.2708C26.9825 69.2708 31.2199 65.0399 31.2199 59.8208C31.2199 54.6017 26.9825 50.3708 21.7553 50.3708C16.5282 50.3708 12.2908 54.6017 12.2908 59.8208C12.2908 65.0399 16.5282 69.2708 21.7553 69.2708Z" fill="#F64431"/>
<path d="M21.7553 70C19.7332 70 17.7565 69.4013 16.0751 68.2796C14.3938 67.1579 13.0834 65.5636 12.3095 63.6982C11.5357 61.8329 11.3332 59.7803 11.7277 57.8001C12.1222 55.8199 13.096 54.0009 14.5258 52.5733C15.9557 51.1456 17.7774 50.1734 19.7607 49.7795C21.744 49.3856 23.7997 49.5878 25.6679 50.3604C27.5361 51.133 29.1329 52.4415 30.2563 54.1202C31.3798 55.799 31.9794 57.7726 31.9794 59.7917C31.9794 62.4991 30.9022 65.0956 28.9848 67.01C27.0674 68.9245 24.4669 70 21.7553 70ZM21.7553 51.1C20.0221 51.1 18.3277 51.6132 16.8866 52.5746C15.4454 53.5361 14.3222 54.9027 13.6589 56.5015C12.9956 58.1004 12.8221 59.8597 13.1602 61.557C13.4984 63.2544 14.333 64.8135 15.5586 66.0372C16.7842 67.2609 18.3457 68.0943 20.0456 68.4319C21.7456 68.7695 23.5076 68.5962 25.109 67.9339C26.7103 67.2717 28.0789 66.1502 29.0419 64.7112C30.0048 63.2723 30.5188 61.5806 30.5188 59.85C30.5188 57.5294 29.5955 55.3038 27.952 53.6628C26.3086 52.0219 24.0795 51.1 21.7553 51.1Z" fill="#302D3D"/>
<path d="M26.0494 58.4646H23.1136V55.5333H20.3969V58.4646H17.4612V61.1771H20.3969V64.1083H23.1136V61.1771H26.0494V58.4646Z" fill="white"/>
<path d="M23.1136 64.8375H20.3969C20.2032 64.8375 20.0175 64.7607 19.8805 64.6239C19.7436 64.4872 19.6666 64.3017 19.6666 64.1083V61.9208H17.4758C17.2821 61.9208 17.0963 61.844 16.9594 61.7073C16.8224 61.5705 16.7455 61.3851 16.7455 61.1917V58.4646C16.7455 58.2712 16.8224 58.0857 16.9594 57.949C17.0963 57.8122 17.2821 57.7354 17.4758 57.7354H19.6666V55.5479C19.6666 55.3545 19.7436 55.1691 19.8805 55.0323C20.0175 54.8956 20.2032 54.8188 20.3969 54.8188H23.1136C23.3073 54.8188 23.493 54.8956 23.63 55.0323C23.767 55.1691 23.8439 55.3545 23.8439 55.5479V57.7354H26.0348C26.2285 57.7354 26.4142 57.8122 26.5512 57.949C26.6881 58.0857 26.7651 58.2712 26.7651 58.4646V61.1771C26.7651 61.3705 26.6881 61.5559 26.5512 61.6927C26.4142 61.8294 26.2285 61.9063 26.0348 61.9063H23.8439V64.0938C23.8458 64.1907 23.8284 64.2871 23.7926 64.3773C23.7567 64.4674 23.7032 64.5495 23.6352 64.6188C23.5672 64.6881 23.4861 64.7431 23.3965 64.7806C23.3069 64.8182 23.2108 64.8375 23.1136 64.8375ZM21.1272 63.3792H22.3833V61.1917C22.3833 60.9983 22.4603 60.8128 22.5972 60.6761C22.7342 60.5393 22.9199 60.4625 23.1136 60.4625H25.3045V59.1938H23.1136C22.9199 59.1938 22.7342 59.1169 22.5972 58.9802C22.4603 58.8434 22.3833 58.658 22.3833 58.4646V56.2771H21.1272V58.4646C21.1272 58.658 21.0503 58.8434 20.9133 58.9802C20.7764 59.1169 20.5906 59.1938 20.3969 59.1938H18.2061V60.4479H20.3969C20.5906 60.4479 20.7764 60.5247 20.9133 60.6615C21.0503 60.7982 21.1272 60.9837 21.1272 61.1771V63.3792Z" fill="#302D3D"/>
</svg>
