<svg width="121" height="120" viewBox="0 0 121 120" fill="none" xmlns="http://www.w3.org/2000/svg">
<path d="M90.2656 119.062C91.361 119.062 92.25 118.18 92.25 117.094V102.151L105.629 91.748C107.303 90.425 109.546 87.8302 110.423 85.767L119.869 63.9808C119.976 63.7367 120.031 63.4689 120.031 63.2012V44.2264C120.031 41.7772 117.233 39.9699 114.531 39.6431C111.181 39.2139 106.97 41.0212 105.383 47.3094C104.565 50.5736 104.382 53.3338 104.22 55.7672C104.144 56.85 104.97 57.8698 106.065 57.9407C107.161 58.0155 108.101 57.2713 108.169 56.1885C108.331 53.7551 108.502 51.1839 109.236 48.2584C109.736 46.2817 110.808 43.8523 113.098 43.5491C114.63 43.3325 115.912 44.1476 116.122 44.5177L116.062 62.7956L106.772 84.2274C106.192 85.6016 104.39 87.6924 103.168 88.661L89.0393 99.6467C88.5591 100.017 88.2812 100.588 88.2812 101.194V117.094C88.2812 118.18 89.1702 119.062 90.2656 119.062Z" fill="#3B485B"/>
<path d="M30.7344 119.062C29.639 119.062 28.75 118.18 28.75 117.094V102.151L15.3713 91.748C13.6965 90.425 11.4542 87.8302 10.5771 85.767L1.13147 63.9808C1.02431 63.7367 0.96875 63.4689 0.96875 63.2012V44.2264C0.96875 41.7772 3.76672 39.9699 6.46944 39.6431C9.81906 39.2139 14.0299 41.0212 15.6174 47.3094C16.435 50.5736 16.6175 53.3338 16.7803 55.7672C16.8557 56.85 16.0302 57.8698 14.9348 57.9407C13.8394 58.0155 12.8988 57.2713 12.8313 56.1885C12.6686 53.7551 12.498 51.1839 11.7638 48.2584C11.2637 46.2817 10.1921 43.8523 7.90216 43.5491C6.37022 43.3325 5.08831 44.1476 4.87797 44.5177L4.9375 62.7956L14.2283 84.2274C14.8078 85.6016 16.6096 87.6924 17.832 88.661L31.9607 99.6467C32.4409 100.017 32.7188 100.588 32.7188 101.194V117.094C32.7188 118.18 31.8298 119.062 30.7344 119.062Z" fill="#3B485B"/>
<path d="M54.5469 119.063C53.4515 119.063 52.5625 118.181 52.5625 117.094V95.5832C52.5625 87.2869 46.788 80.0537 38.5171 77.9905C37.4535 77.7266 36.8105 76.6556 37.0765 75.6004C37.3424 74.5491 38.402 73.8955 39.4855 74.1711C49.5185 76.6753 56.5313 85.4796 56.5313 95.5832V117.094C56.5313 118.181 55.6423 119.063 54.5469 119.063Z" fill="#3B485B"/>
<path d="M31.7742 85.2669C31.2662 85.2669 30.7582 85.074 30.3693 84.692L12.9583 67.4458C12.5853 67.0757 12.3789 66.5756 12.3789 66.0519C12.3789 65.5322 12.5892 65.0282 12.9583 64.658C18.4154 59.244 25.1424 59.7007 31.4091 65.918L40.3586 74.7774C41.1325 75.5452 41.1325 76.7934 40.3586 77.5612C39.5847 78.333 38.3266 78.329 37.5527 77.5652L28.6032 68.7058C24.5352 64.6699 20.7292 63.8154 17.2883 66.17L33.1712 81.9043C33.9451 82.6721 33.9451 83.9203 33.1712 84.692C32.7902 85.074 32.2822 85.2669 31.7742 85.2669Z" fill="#3B485B"/>
<path d="M66.4531 119.062C65.3577 119.062 64.4688 118.18 64.4688 117.094V95.5831C64.4688 85.4795 71.4815 76.6753 81.5145 74.171C82.5901 73.8954 83.6537 74.549 83.9236 75.6003C84.1855 76.6556 83.5426 77.7266 82.4829 77.9904C74.212 80.0536 68.4375 87.2868 68.4375 95.5831V117.094C68.4375 118.18 67.5485 119.062 66.4531 119.062Z" fill="#3B485B"/>
<path d="M89.2258 85.2669C88.7178 85.2669 88.2098 85.074 87.8208 84.692C87.0469 83.9203 87.0469 82.676 87.8208 81.9043L103.704 66.17C100.267 63.8194 96.4568 64.6738 92.3888 68.7058L83.4393 77.5652C82.6654 78.329 81.4073 78.333 80.6334 77.5612C79.8595 76.7934 79.8595 75.5452 80.6334 74.7774L89.5829 65.918C95.8496 59.7007 102.577 59.244 108.034 64.658C108.407 65.0282 108.613 65.5282 108.613 66.0519C108.613 66.5756 108.403 67.0757 108.034 67.4458L90.6228 84.692C90.2418 85.074 89.7338 85.2669 89.2258 85.2669Z" fill="#3B485B"/>
<path d="M89.2258 85.2669C88.7178 85.2669 88.2098 85.074 87.8208 84.692C87.0469 83.9203 87.0469 82.676 87.8208 81.9043L103.704 66.17C100.267 63.8194 96.4568 64.6738 92.3888 68.7058L83.4393 77.5652C82.6654 78.329 81.4073 78.333 80.6334 77.5612C79.8595 76.7934 79.8595 75.5452 80.6334 74.7774L89.5829 65.918C95.8496 59.7007 102.577 59.244 108.034 64.658C108.407 65.0282 108.613 65.5282 108.613 66.0519C108.613 66.5756 108.403 67.0757 108.034 67.4458L90.6228 84.692C90.2418 85.074 89.7338 85.2669 89.2258 85.2669Z" fill="#3B485B"/>
<path d="M69.2274 46.0179C68.1518 46.0179 67.0763 45.9313 66.0008 45.7541C60.8652 44.9076 56.3646 42.1238 53.3285 37.9106C50.2925 33.6975 49.0939 28.5709 49.9432 23.4758C50.5425 19.9163 53.9397 17.4947 57.5354 18.0932C61.1232 18.6838 63.56 22.0661 62.9607 25.6256C62.7226 27.0431 62.9925 28.5118 63.7068 29.7521C64.2545 30.6971 63.9251 31.8981 62.9726 32.4414C62.032 32.973 60.8136 32.658 60.262 31.713C59.0912 29.6891 58.6586 27.2991 59.0396 24.9838C59.2777 23.5624 58.3054 22.2118 56.8766 21.9756C55.4399 21.7511 54.0866 22.7001 53.8485 24.1215C53.1698 28.1771 54.1263 32.2603 56.5472 35.619C58.9681 38.9777 62.5559 41.1984 66.6437 41.8718C67.7669 42.0529 68.9059 42.1238 70.0171 42.0608C71.1324 42.0371 72.0491 42.8404 72.1007 43.9232C72.1603 45.0099 71.3189 45.9353 70.2235 45.9943C69.9021 46.0101 69.5647 46.0179 69.2274 46.0179Z" fill="#3B485B"/>
<path d="M57.6664 72.6C55.8487 72.6 53.9159 72.4267 51.8521 72.0487C46.4864 71.0644 42.1089 68.001 39.5212 63.4138C37.7393 60.2599 36.247 55.3262 37.2511 48.0969C36.5169 48.4395 35.7985 48.6521 35.104 48.8175C32.3537 49.4751 28.4087 48.3253 26.1148 46.2069C24.3765 44.5965 23.6185 42.5057 23.9875 40.3204C24.309 38.4343 25.2456 36.9341 26.6982 35.9773C28.3532 34.8906 30.3415 34.7134 31.7266 34.7961C34.4968 27.5353 40.3428 23.9797 46.9944 25.665C49.9273 26.4092 52.3125 28.2086 53.8881 30.8664C56.7575 35.6977 56.5035 42.2655 55.3089 46.7976C55.0351 47.8489 53.9635 48.4749 52.892 48.2072C51.8283 47.9316 51.1933 46.8566 51.4751 45.8053C52.4157 42.2064 52.7213 36.6624 50.471 32.8667C49.4233 31.1066 47.9231 29.9647 46.0101 29.4804C40.9659 28.1929 36.8741 31.209 34.9969 37.509C34.6952 38.5091 33.6753 39.0997 32.6355 38.8674C31.9885 38.7217 30.0359 38.5091 28.885 39.273C28.5516 39.4974 28.0873 39.9148 27.9047 40.9819C27.8491 41.3008 27.6824 42.2773 28.8215 43.3326C30.3693 44.7619 33.0363 45.2659 34.1753 44.9942C35.5803 44.6595 37.4495 44.2106 39.4617 39.2454C39.6879 38.5997 39.926 37.9421 40.188 37.2727C40.573 36.2726 41.6842 35.7529 42.7121 36.123C43.7281 36.4852 44.2679 37.5838 43.9265 38.5997C43.6845 39.3045 43.4463 39.9581 43.2003 40.5684C40.1959 49.2112 40.1205 56.4169 42.986 61.4962C44.9862 65.04 48.3914 67.4143 52.5784 68.1821C70.1997 71.403 76.8513 57.7635 80.8161 49.605C82.1615 46.833 82.9751 45.1635 84.126 44.3484C84.4792 44.1004 85.1777 43.7224 86.1263 43.2262C90.8491 40.7653 101.914 34.9969 103.164 24.1884C104.216 15.1676 97.6475 6.60749 88.5353 5.1073C84.2173 4.39067 79.8358 5.39474 76.252 7.93442C72.6722 10.4741 70.3029 14.2462 69.5805 18.5539C69.4774 19.3965 68.8265 20.3612 67.9891 20.5266C65.3737 21.0424 63.4012 23.0466 62.9686 25.6256C62.5281 28.2519 63.8378 30.8743 66.2309 32.154C67.1953 32.6698 67.5565 33.8629 67.0366 34.8197C66.5127 35.7765 65.3181 36.1348 64.3458 35.6229C60.4604 33.5479 58.3291 29.2717 59.0515 24.9799C59.6666 21.3022 62.3138 18.2546 65.8261 17.0379C66.8699 12.0767 69.7274 7.71786 73.9382 4.73324C78.3793 1.5793 83.7926 0.335049 89.1822 1.22099C100.346 3.0598 108.387 13.5651 107.105 24.6373C105.609 37.5169 92.7938 44.1949 87.9678 46.7109C87.2455 47.0889 86.7057 47.3567 86.4319 47.5457C86.0469 47.9001 85.1261 49.794 84.384 51.3139C80.9074 58.4722 74.0335 72.6 57.6664 72.6Z" fill="#3B485B"/>
</svg>
