<svg width="19" height="18" viewBox="0 0 19 18" fill="none" xmlns="http://www.w3.org/2000/svg">
<path d="M7.19438 5.40488L5.22171 7.22652C6.24884 9.29671 8.42788 11.6026 10.9561 12.3767L12.662 10.8328C12.662 10.8328 16.7062 11.473 17.6148 11.8754C18.4034 12.2215 18.6631 12.9899 18.5399 13.9384C18.4066 14.9582 16.9361 17.205 14.2847 17.2299C11.6341 17.2541 7.7303 15.4418 4.93373 12.767C2.13716 10.0936 -0.356512 6.7031 0.0420891 3.82465C0.441499 0.94544 3.20432 0.431298 3.89563 0.385014C4.59477 0.338714 5.14955 0.524582 5.57092 0.998166C6.11309 1.60846 7.19438 5.40488 7.19438 5.40488ZM4.95415 1.59351C4.62536 1.20326 4.06039 1.13773 3.49543 1.25881C2.99325 1.36563 1.16418 2.05426 0.905241 3.8987C0.618051 5.94966 2.30353 9.42062 5.32765 12.0762C8.35255 14.7318 11.2668 16.2814 13.7715 16.4672C16.2762 16.6531 17.4979 14.6513 17.6768 14.0495C17.8549 13.4485 17.7074 12.8417 17.3472 12.5996C16.889 12.2913 12.9492 11.6518 12.9492 11.6518L11.1617 13.2505C8.22229 12.3824 5.45476 9.95331 4.27696 6.98441L6.22923 5.19978C6.22844 5.19978 5.28371 1.98305 4.95415 1.59351Z" fill="#302D3D"/>
</svg>
