<svg width="118" height="114" viewBox="0 0 118 114" fill="none" xmlns="http://www.w3.org/2000/svg">
<path d="M19.6727 34.3446C20.6274 34.3446 21.4013 33.5709 21.4013 32.6161C21.4013 31.6612 20.6274 30.8875 19.6727 30.8875H16.2461C15.2915 30.8875 14.5175 31.6612 14.5175 32.6161C14.5175 33.5709 15.2915 34.3446 16.2461 34.3446H19.6727ZM33.4232 20.5939V17.1675C33.4232 16.2126 32.6493 15.4389 31.6947 15.4389C30.7401 15.4389 29.9661 16.2126 29.9661 17.1675V20.5939C29.9661 21.5488 30.7401 22.3225 31.6947 22.3225C32.6493 22.3225 33.4232 21.5488 33.4232 20.5939ZM111.179 48.3133H109.153C107.41 48.3133 105.847 47.3426 105.074 45.7798C104.475 44.5677 103.604 43.5603 102.554 42.8131C99.175 33.0876 89.1746 25.8614 77.0957 25.8614C66.6325 25.8614 57.5576 31.3591 53.1842 39.3406L48.8292 34.9856C51.1355 26.4396 48.3781 16.4996 41.219 9.34016C30.6096 -1.2692 14.9734 -1.66492 6.19355 7.11494C-1.50401 14.8123 -1.88983 27.1834 4.27555 36.9626C4.78444 37.7699 5.85153 38.0117 6.65956 37.503C7.46714 36.9939 7.70891 35.9263 7.19979 35.1188C6.8527 34.5679 6.53004 34.01 6.23134 33.4465C10.1167 31.0477 12.5288 27.2274 14.6823 23.8088C17.7073 19.0066 18.0853 18.6284 22.8874 15.6037C26.3069 13.4497 30.1281 11.0367 32.5267 7.14998C37.011 9.52546 40.923 13.3478 43.3992 18.0366C37.2885 21.8131 34.7367 29.2288 31.522 32.4434C28.3035 35.6625 20.8924 38.2069 17.114 44.3225C15.4009 43.4158 13.7657 42.3033 12.2538 40.9917C11.5329 40.3662 10.4412 40.4438 9.81543 41.1645C9.18992 41.8857 9.26736 42.9774 9.98851 43.6029C16.657 49.3883 25.7563 52.0138 34.0695 49.7559L45.8796 61.5658C42.6871 62.3452 39.3196 63.2212 36.377 63.6656C19.4628 56.3679 0.455696 68.8404 0.455696 87.3239C0.455696 101.524 12.0084 113.077 26.2085 113.077C32.6643 113.077 38.5724 110.688 43.0971 106.749C49.5353 110.515 57.034 112.425 65.4115 112.425C72.0306 112.425 78.391 110.776 83.8055 107.657C84.6327 107.18 84.9168 106.123 84.4402 105.296C83.9638 104.469 82.9064 104.185 82.0797 104.661C77.1893 107.479 71.4256 108.968 65.4117 108.968C58.002 108.968 51.3628 107.366 45.6355 104.211C48.256 101.201 50.189 97.5769 51.1897 93.5872C56.2096 95.7006 62.2491 96.9339 67.7789 96.9339C76.0994 96.9339 82.8684 90.1647 82.8684 81.8441C82.8684 73.5236 76.0994 66.7544 67.7789 66.7544C60.0262 66.7544 52.2261 68.7477 46.9107 72.0241C45.2732 69.8144 43.2911 67.8745 41.0443 66.2854C45.606 65.2605 50.2447 63.9016 55.7162 63.029C56.943 62.8336 57.5703 61.4413 56.9012 60.3924C54.912 57.2746 53.8604 53.7177 53.8604 50.1069C53.8604 38.6441 64.2837 29.3182 77.096 29.3182C86.2075 29.3182 94.4153 34.1324 98.1739 41.3547C94.8041 41.257 91.3399 42.7188 88.9971 45.6092L88.3483 46.4101C83.3948 52.5229 87.1568 61.9564 94.8723 61.9564H96.1844C94.1705 64.5552 91.5254 66.7097 88.4018 68.2704C87.3508 68.7952 87.1197 70.1947 87.9434 71.0304C96.3241 79.5318 96.3236 91.4876 88.1308 99.9764C87.4677 100.663 87.4873 101.758 88.1741 102.421C88.8584 103.082 89.9534 103.066 90.618 102.377C99.4776 93.1979 100.144 80.1027 91.9227 70.2735C95.4294 68.1478 98.3149 65.3119 100.384 61.9566H111.179C114.94 61.9566 118 58.8967 118 55.1351C118 51.3733 114.94 48.3133 111.179 48.3133ZM15.6701 16.5913C12.142 20.1194 9.84239 26.8374 4.81463 30.2417C-0.150447 16.4419 8.87533 3.45043 23.1275 4.42671C25.2334 4.57052 27.3143 5.01626 29.3213 5.73487C25.9123 10.7702 19.2035 13.0579 15.6701 16.5913ZM67.7784 70.2115C74.1925 70.2115 79.4108 75.4298 79.4108 81.8441C79.4108 88.2584 74.1925 93.4768 67.7784 93.4768C62.4174 93.4768 56.5468 92.2198 51.8126 90.087C52.0221 88.1328 52.0102 86.1966 51.7762 84.244C55.2421 84.548 59.1018 84.6001 61.342 84.6001C62.2968 84.6001 63.0705 83.8264 63.0705 82.8716C63.0705 81.9167 62.2968 81.143 61.342 81.143C57.4076 81.143 53.7629 80.9849 51.097 80.7042C50.5559 78.671 49.7718 76.7359 48.7775 74.9323C53.5474 71.9977 60.651 70.2115 67.7784 70.2115ZM48.504 87.3239C48.504 99.6177 38.5021 109.62 26.2083 109.62C13.9144 109.62 3.91256 99.6177 3.91256 87.3239C3.91256 75.03 13.9144 65.0284 26.2083 65.0284C38.5021 65.0284 48.504 75.03 48.504 87.3239ZM20.3171 45.7426C22.3531 42.7364 25.639 40.661 28.5918 38.8008C33.8524 35.4875 34.5638 34.7767 37.8794 29.5132C39.7382 26.5622 41.8122 23.2789 44.8153 21.2427C47.4622 28.634 46.2735 36.6452 40.9986 41.92C35.7097 47.2094 27.6849 48.3862 20.3171 45.7426ZM49.8423 60.6393L37.6436 48.4406C41.9148 46.4191 45.4226 43.0099 47.5182 38.5632L51.6723 42.7172C49.6231 48.5203 50.1081 54.7115 52.7401 60.0412C51.7509 60.2297 50.7859 60.4316 49.8423 60.6393ZM111.179 58.4991C110.634 58.4991 99.9819 58.4991 94.8719 58.4991C90.1165 58.4991 87.8895 52.4667 91.034 48.5862L91.6826 47.7856C93.2187 45.8901 95.4988 44.8035 97.9381 44.8035C98.7321 44.8035 99.4869 45.0091 100.146 45.3792C100.209 45.4214 100.273 45.4594 100.341 45.493C101.028 45.9261 101.597 46.5468 101.975 47.3112C103.334 50.0617 106.085 51.7702 109.153 51.7702H111.179C113.034 51.7702 114.543 53.2796 114.543 55.1346C114.543 56.9897 113.034 58.4991 111.179 58.4991ZM19.7352 74.3485V80.8508H13.2329C11.5859 80.8508 10.2459 82.1905 10.2459 83.8377V90.81C10.2459 92.4572 11.5859 93.7971 13.2329 93.7971H19.7352V100.299C19.7352 101.946 21.0752 103.286 22.7221 103.286H29.6944C31.3414 103.286 32.6813 101.946 32.6813 100.299V93.7971H39.1837C40.8306 93.7971 42.1708 92.4572 42.1708 90.81V83.8377C42.1708 82.1905 40.8308 80.8508 39.1837 80.8508H32.6813V74.3485C32.6813 72.7015 31.3414 71.3613 29.6944 71.3613H22.7224C21.0752 71.3613 19.7352 72.7015 19.7352 74.3485ZM23.1923 74.8184H29.2245V81.3207C29.2245 82.9677 30.5644 84.3079 32.2116 84.3079H38.714V90.3401H32.2116C30.5644 90.3401 29.2245 91.6798 29.2245 93.327V99.8293H23.1923V93.327C23.1923 91.68 21.8523 90.3401 20.2054 90.3401H13.703V84.3079H20.2051C21.8521 84.3079 23.1921 82.9679 23.1921 81.3207L23.1923 74.8184ZM72.4625 44.2607C72.4625 45.2156 73.2362 45.9893 74.1911 45.9893C75.1459 45.9893 75.9196 45.2156 75.9196 44.2607C75.9196 43.4644 76.5675 42.8166 77.3638 42.8166C78.1598 42.8166 78.8077 43.4644 78.8077 44.2607C78.8077 45.2156 79.5814 45.9893 80.5362 45.9893C81.4911 45.9893 82.2648 45.2156 82.2648 44.2607C82.2648 41.5582 80.0663 39.3595 77.3638 39.3595C74.6612 39.3595 72.4625 41.5582 72.4625 44.2607Z" fill="#3B485B"/>
</svg>
