<svg width="22" height="18" viewBox="0 0 22 18" fill="none" xmlns="http://www.w3.org/2000/svg">
<path d="M19.0287 3.48693L11 10.5635L2.97133 3.48693M2.02407 1.14443C1.75247 1.14443 1.49199 1.27365 1.29994 1.50365C1.10789 1.73365 1 2.0456 1 2.37087V16.2357C1 16.561 1.10789 16.873 1.29994 17.103C1.49199 17.333 1.75247 17.4622 2.02407 17.4622H19.9759C20.2475 17.4622 20.508 17.333 20.7001 17.103C20.8921 16.873 21 16.561 21 16.2357V2.35247C21 2.0272 20.8921 1.71525 20.7001 1.48525C20.508 1.25525 20.2475 1.12604 19.9759 1.12604H2.02407V1.14443Z" stroke="#302D3D" stroke-linecap="round" stroke-linejoin="round"/>
</svg>
