<svg width="74" height="110" viewBox="0 0 74 110" fill="none" xmlns="http://www.w3.org/2000/svg">
<path d="M37 0.179993C27.4117 0.190844 18.2193 4.00456 11.4394 10.7845C4.65953 17.5644 0.845814 26.7568 0.834962 36.345V73.655C0.833633 78.7344 1.9048 83.7569 3.97838 88.3938C6.05196 93.0307 9.08122 97.1776 12.868 100.563C12.9369 100.634 13.0118 100.699 13.092 100.757C18.3068 105.367 24.7421 108.373 31.6242 109.414C38.5064 110.454 45.5427 109.485 51.8873 106.623C58.232 103.761 63.6151 99.1272 67.3897 93.2791C71.1643 87.4311 73.1697 80.6174 73.165 73.657V36.345C73.1541 26.7568 69.3404 17.5644 62.5605 10.7845C55.7806 4.00456 46.5882 0.190844 37 0.179993ZM4.33496 73.655V36.345C4.33496 27.6817 7.77645 19.3732 13.9023 13.2473C20.0282 7.12147 28.3367 3.67999 37 3.67999C45.6633 3.67999 53.9717 7.12147 60.0976 13.2473C66.2235 19.3732 69.665 27.6817 69.665 36.345V51.391C65.0329 57.1488 60.0853 62.6456 54.845 67.856C49.351 64.194 43.354 57.189 40.351 53.449C45.6134 52.5924 50.3459 49.7477 53.5714 45.5024C56.7968 41.257 58.2689 35.9352 57.6835 30.6358C57.0982 25.3363 54.5003 20.464 50.4261 17.0249C46.3519 13.5857 41.1126 11.8424 35.7901 12.1549C30.4676 12.4674 25.4684 14.8119 21.8246 18.7041C18.1809 22.5964 16.1709 27.7393 16.2098 33.0708C16.2487 38.4023 18.3334 43.5153 22.0335 47.3541C25.7336 51.1928 30.7665 53.4641 36.093 53.699C38.043 56.255 45.28 65.426 52.299 70.353C42.241 80.065 28.81 91.025 14.412 97.218C11.2261 94.1761 8.69038 90.5194 6.95831 86.4694C5.22625 82.4193 4.3338 78.0599 4.33496 73.655ZM37 50.245C33.5783 50.245 30.2336 49.2304 27.3886 47.3294C24.5436 45.4285 22.3262 42.7266 21.0168 39.5654C19.7075 36.4043 19.3649 32.9258 20.0324 29.5699C20.6999 26.2141 22.3476 23.1315 24.767 20.712C27.1865 18.2926 30.269 16.6449 33.6249 15.9774C36.9808 15.3099 40.4592 15.6525 43.6204 16.9619C46.7815 18.2713 49.4834 20.4887 51.3844 23.3336C53.2853 26.1786 54.3 29.5234 54.3 32.945C54.296 37.532 52.472 41.93 49.2285 45.1736C45.985 48.4171 41.587 50.241 37 50.245ZM37 106.32C29.9158 106.327 23.0234 104.019 17.372 99.747C41.419 88.824 62.019 66.087 69.665 56.947V73.655C69.6557 82.3154 66.2112 90.6185 60.0874 96.7424C53.9635 102.866 45.6604 106.311 37 106.32Z" fill="#3B485B"/>
<path d="M32.342 30.535C32.7055 30.5351 33.0599 30.4221 33.3562 30.2116C33.6525 30.0012 33.8759 29.7037 33.9954 29.3604C34.1149 29.0172 34.1246 28.6453 34.0231 28.2963C33.9216 27.9473 33.714 27.6386 33.429 27.413C32.3249 26.4233 30.8943 25.876 29.4115 25.876C27.9287 25.876 26.4982 26.4233 25.394 27.413C25.0362 27.703 24.8072 28.1223 24.7565 28.58C24.7058 29.0377 24.8376 29.497 25.1233 29.8582C25.4089 30.2194 25.8255 30.4534 26.2826 30.5095C26.7397 30.5657 27.2004 30.4394 27.565 30.158C27.8056 29.9121 28.0928 29.7167 28.4099 29.5833C28.727 29.4499 29.0675 29.3812 29.4115 29.3812C29.7555 29.3812 30.0961 29.4499 30.4131 29.5833C30.7302 29.7167 31.0175 29.9121 31.258 30.158C31.5664 30.4026 31.9485 30.5355 32.342 30.535Z" fill="#3B485B"/>
<path d="M48.606 27.413C47.5018 26.4233 46.0712 25.876 44.5885 25.876C43.1057 25.876 41.6751 26.4233 40.571 27.413C40.3876 27.5545 40.2342 27.7309 40.1196 27.9321C40.005 28.1333 39.9314 28.3553 39.9032 28.5851C39.875 28.815 39.8926 29.0481 39.9552 29.2711C40.0177 29.494 40.1239 29.7024 40.2675 29.884C40.4112 30.0656 40.5895 30.2169 40.792 30.3292C40.9946 30.4414 41.2174 30.5123 41.4475 30.5378C41.6777 30.5633 41.9106 30.5428 42.1328 30.4776C42.355 30.4124 42.5621 30.3038 42.742 30.158C42.9825 29.9121 43.2698 29.7167 43.5868 29.5833C43.9039 29.4499 44.2445 29.3812 44.5885 29.3812C44.9325 29.3812 45.273 29.4499 45.5901 29.5833C45.9072 29.7167 46.1944 29.9121 46.435 30.158C46.7995 30.4394 47.2603 30.5657 47.7174 30.5095C48.1745 30.4534 48.5911 30.2194 48.8767 29.8582C49.1624 29.497 49.2942 29.0377 49.2435 28.58C49.1928 28.1223 48.9638 27.703 48.606 27.413Z" fill="#3B485B"/>
<path d="M40.714 39.037C37.914 40.823 35.664 40.85 33.407 39.122C33.0379 38.8501 32.5769 38.7339 32.123 38.7984C31.6691 38.8629 31.2587 39.1029 30.9799 39.4668C30.7011 39.8308 30.5763 40.2895 30.6322 40.7445C30.6882 41.1996 30.9204 41.6144 31.279 41.9C32.8343 43.1689 34.772 43.8763 36.779 43.908C38.864 43.8406 40.8852 43.1729 42.6 41.985C42.9841 41.7318 43.253 41.3376 43.3486 40.8877C43.4442 40.4378 43.3588 39.9683 43.111 39.5808C42.8631 39.1934 42.4726 38.9191 42.024 38.8173C41.5755 38.7155 41.1048 38.7945 40.714 39.037Z" fill="#3B485B"/>
</svg>
