<svg width="23" height="24" viewBox="0 0 23 24" fill="none" xmlns="http://www.w3.org/2000/svg">
<path d="M11.2464 22C16.7777 22 21.2618 17.5228 21.2618 12C21.2618 6.47715 16.7777 2 11.2464 2C5.71501 2 1.23096 6.47715 1.23096 12C1.23096 17.5228 5.71501 22 11.2464 22Z" stroke="#3B485B" stroke-width="1.5" stroke-linecap="square"/>
<path d="M11.2464 22C13.9172 19.5758 15.2526 16.2424 15.2526 12C15.2526 7.75758 13.9172 4.42424 11.2464 2C8.57562 4.42424 7.24023 7.75758 7.24023 12C7.24023 16.2424 8.57562 19.5758 11.2464 22Z" stroke="#3B485B" stroke-width="1.5" stroke-linecap="round"/>
<path d="M1.73169 9H20.761M1.73169 15H20.761" stroke="#3B485B" stroke-width="1.5" stroke-linecap="round"/>
</svg>
